<?xml version="1.0" encoding="utf-8"?>
<!-- Generator: Adobe Illustrator 24.0.1, SVG Export Plug-In . SVG Version: 6.00 Build 0)  -->
<svg version="1.1" id="Calque_1" xmlns="http://www.w3.org/2000/svg" xmlns:xlink="http://www.w3.org/1999/xlink" x="0px" y="0px"
	 viewBox="0 0 25 35" style="enable-background:new 0 0 25 35;" xml:space="preserve">
<style type="text/css">
	.st0{fill-rule:evenodd;clip-rule:evenodd;fill:#FFFFFF;}
</style>
<path id="ico-cal" class="st0" d="M22.2,0H2.8C1.3,0,0,1.3,0,2.8v29.3C0,33.7,1.3,35,2.8,35h19.3c1.6,0,2.8-1.3,2.8-2.8V2.8
	C25,1.3,23.7,0,22.2,0z M23.9,32.2c0,0.9-0.8,1.7-1.7,1.7c0,0,0,0,0,0H2.8c-0.9,0-1.7-0.8-1.7-1.7l0,0V2.8c0-0.9,0.8-1.7,1.7-1.7h0
	h19.3c0.9,0,1.7,0.8,1.7,1.7c0,0,0,0,0,0V32.2z M3.4,11.3h18.2V3.4H3.4V11.3z M4.5,4.5h15.9v5.6H4.5V4.5z M8,13.5H3.4v4.5H8V13.5z
	 M6.8,16.9H4.5v-2.3h2.3V16.9z M10.2,18.1h4.5v-4.5h-4.5V18.1L10.2,18.1z M11.4,14.7h2.3v2.3h-2.3V14.7L11.4,14.7z M17,18.1h4.5
	v-4.5H17V18.1z M18.2,14.7h2.3v2.3h-2.3V14.7z M8,20.3H3.4v4.5H8V20.3z M6.8,23.7H4.5v-2.3h2.3V23.7z M10.2,24.8h4.5v-4.5h-4.5V24.8
	L10.2,24.8z M11.4,21.5h2.3v2.3h-2.3V21.5L11.4,21.5z M17,31.6h4.5V20.3H17V31.6L17,31.6z M18.2,21.5h2.3v9h-2.3V21.5z M3.4,31.6
	h11.4v-4.5H3.4V31.6L3.4,31.6z M4.5,28.2h9.1v2.3H4.5V28.2z M11.9,6.8h1.1v1.1h-1.1V6.8z M14.2,6.8h1.1v1.1h-1.1V6.8z M9.7,6.8h1.1
	v1.1H9.7V6.8z"/>
</svg>
