<svg xmlns="http://www.w3.org/2000/svg" width="19" height="35" viewBox="0 0 19 35">
  <metadata><?xpacket begin="﻿" id="W5M0MpCehiHzreSzNTczkc9d"?>
<x:xmpmeta xmlns:x="adobe:ns:meta/" x:xmptk="Adobe XMP Core 5.6-c138 79.159824, 2016/09/14-01:09:01        ">
   <rdf:RDF xmlns:rdf="http://www.w3.org/1999/02/22-rdf-syntax-ns#">
      <rdf:Description rdf:about=""/>
   </rdf:RDF>
</x:xmpmeta>
                                                                                                    
                                                                                                    
                                                                                                    
                                                                                                    
                                                                                                    
                                                                                                    
                                                                                                    
                                                                                                    
                                                                                                    
                                                                                                    
                                                                                                    
                                                                                                    
                                                                                                    
                                                                                                    
                                                                                                    
                                                                                                    
                                                                                                    
                                                                                                    
                                                                                                    
                                                                                                    
                           
<?xpacket end="w"?></metadata>
<defs>
    <style>
      .cls-1 {
        fill: #e71f61;
        fill-rule: evenodd;
      }
    </style>
  </defs>
  <path id="ico-mobile" class="cls-1" d="M1112.02,656h-13.03a2.976,2.976,0,0,0-2.99,3.028v28.941a2.977,2.977,0,0,0,2.99,3.028h13.03a2.983,2.983,0,0,0,2.99-3.028V659.026A3.021,3.021,0,0,0,1112.02,656Zm1.79,31.969a1.774,1.774,0,0,1-1.79,1.816h-13.03a1.776,1.776,0,0,1-1.8-1.816v-4.238h16.62v4.238Zm0-5.449h-16.62V664.475h16.62v18.043Zm-16.62-19.254v-4.238a1.776,1.776,0,0,1,1.8-1.816h13.03a1.774,1.774,0,0,1,1.79,1.816v4.238h-16.62Zm8.31-4a0.848,0.848,0,1,1-.84.848A0.847,0.847,0,0,1,1105.5,659.268Zm-2.57,27.851h5.14a0.6,0.6,0,0,0,.6-0.605v-0.061a0.6,0.6,0,0,0-.6-0.605h-5.14a0.6,0.6,0,0,0-.6.605v0.061A0.7,0.7,0,0,0,1102.93,687.119Z" transform="translate(-1096 -656)"/>
</svg>
